<svg width="24" height="24" viewBox="0 0 24 24" fill="none" xmlns="http://www.w3.org/2000/svg">
<path fill-rule="evenodd" clip-rule="evenodd" d="M8.00002 13C5.66702 13 0.999023 14.167 0.999023 16.5V18.999H15V16.5C15 14.167 10.334 13 8.00002 13ZM16.001 13C15.71 13 15.384 13.018 15.035 13.054C16.193 13.892 17 15.017 17 16.5V18.999H22.999V16.5C22.999 14.167 18.334 13 16.001 13ZM8.00002 4.99902C6.34402 4.99902 5.00002 6.34402 5.00002 8.00002C5.00002 9.65602 6.34402 11 8.00002 11C9.65702 11 10.991 9.65602 10.991 8.00002C10.991 6.34402 9.65702 4.99902 8.00002 4.99902ZM16.001 4.99902C14.343 4.99902 13 6.34402 13 8.00002C13 9.65602 14.343 11 16.001 11C17.657 11 18.99 9.65602 18.99 8.00002C18.99 6.34402 17.657 4.99902 16.001 4.99902Z" fill="white"/>
</svg>
