<svg width="375" height="812" viewBox="0 0 375 812" fill="none" xmlns="http://www.w3.org/2000/svg">
<circle opacity="0.25" cx="109" cy="675" r="6" fill="#E57728"/>
<rect x="60" y="669.5" width="36" height="12" rx="6" fill="#E57728"/>
<path d="M149.868 317.69C149.868 317.69 183.042 341.867 157.56 380.37C157.56 380.37 140.049 342.242 146.843 321.358L149.868 317.69Z" fill="#E48432"/>
<path d="M147.262 323.966C147.262 323.966 168.92 351.206 139.41 376.924C139.41 376.924 133.7 341.816 143.963 326.282L147.262 323.966Z" fill="#E69E4F"/>
<path d="M141.866 301.159C138.329 301.159 134.792 302.508 132.093 305.207C126.696 310.604 126.696 319.354 132.093 324.752C134.792 327.45 138.329 328.8 141.866 328.8C145.402 328.8 148.939 327.45 151.638 324.752C157.035 319.354 157.035 310.604 151.638 305.207C148.939 302.508 145.402 301.159 141.866 301.159ZM141.866 307.737C143.8 307.737 145.619 308.491 146.986 309.858C148.354 311.226 149.108 313.045 149.108 314.979C149.108 316.913 148.354 318.732 146.986 320.1C145.619 321.468 143.8 322.221 141.866 322.221C139.931 322.221 138.112 321.468 136.745 320.1C135.377 318.732 134.624 316.913 134.624 314.979C134.624 313.045 135.377 311.226 136.745 309.858C138.112 308.491 139.931 307.737 141.866 307.737Z" fill="#84BF67"/>
<path d="M128.003 277.615C128.003 277.615 173.202 258.767 200.08 307.94C200.08 307.94 215.673 341.232 227.083 346C227.083 346 198.708 357.65 178.724 335.896C158.74 314.142 174.726 302.943 128.003 277.615Z" fill="#E57729"/>
<path d="M128 277.614C128 277.614 166.78 247.711 205.469 288.252C205.469 288.252 229.147 316.374 241.403 318.026C241.403 318.026 217.01 336.623 192.077 320.782C167.143 304.942 179.686 289.987 128 277.614Z" fill="#E48432"/>
<path d="M128.002 277.615C128.002 277.615 157.721 238.694 205.585 267.84C205.585 267.84 235.734 288.875 248 287.299C248 287.299 229.251 311.576 201.068 302.728C172.884 293.88 181.129 276.189 128.002 277.615Z" fill="#E59442"/>
<path d="M246.417 255.91C234.977 260.607 200.411 248.092 200.411 248.092C146.635 232.327 128.002 277.614 128.002 277.614C178.949 262.486 175.564 281.708 205.077 282.96C234.591 284.211 246.417 255.91 246.417 255.91Z" fill="#E69E4F"/>
<path d="M236.769 226C228.351 232.418 200.301 233.41 192.396 233.562C191.165 233.586 189.933 233.544 188.707 233.429C128.441 227.797 128.005 277.613 128.005 277.613C173.301 249.814 175.007 269.258 203.839 262.828C232.67 256.399 236.769 226 236.769 226Z" fill="#E5A858"/>
<circle cx="16.5" cy="77.5" r="37.5" fill="url(#paint0_linear)"/>
<circle cx="84.201" cy="834.9" r="135.533" transform="rotate(-15.8189 84.201 834.9)" fill="url(#paint1_linear)" fill-opacity="0.7"/>
<circle cx="311.901" cy="190.901" r="36.3654" transform="rotate(-15.8189 311.901 190.901)" fill="url(#paint2_linear)"/>
<circle cx="291" cy="675" r="24" fill="#E57728"/>
<path d="M281 675H301" stroke="white" stroke-width="2" stroke-miterlimit="10"/>
<path d="M294 682L301 675L294 668" stroke="white" stroke-width="2" stroke-miterlimit="10" stroke-linecap="square"/>
<defs>
<linearGradient id="paint0_linear" x1="10.1581" y1="50.2022" x2="62.6029" y2="132.426" gradientUnits="userSpaceOnUse">
<stop stop-color="#FEB665"/>
<stop offset="1" stop-color="#F66EB4"/>
</linearGradient>
<linearGradient id="paint1_linear" x1="320.408" y1="614.456" x2="-144.406" y2="1021.98" gradientUnits="userSpaceOnUse">
<stop stop-color="#2DEEF9"/>
<stop offset="1" stop-color="#E084F1"/>
</linearGradient>
<linearGradient id="paint2_linear" x1="375.279" y1="131.753" x2="250.563" y2="241.097" gradientUnits="userSpaceOnUse">
<stop stop-color="#2DEEF9"/>
<stop offset="1" stop-color="#E084F1"/>
</linearGradient>
</defs>
</svg>
