<svg width="153" height="485" viewBox="0 0 153 485" fill="none" xmlns="http://www.w3.org/2000/svg">
<path d="M29.46 468.47H48.36V484.22H62.43V468.47H117.87C129.84 468.47 138.87 466.37 144.54 461.33C149.37 456.92 152.31 449.99 152.31 441.38C152.31 434.24 151.05 428.57 149.79 425L135.72 425.84C136.56 428.57 136.98 431.51 136.98 436.55C136.98 446.84 129.84 450.41 117.24 450.41H62.43V423.95H48.36L48.36 450.41H24L29.46 468.47ZM150 403.149V384.669H95.82C92.88 384.669 89.73 384.459 87.21 384.039C73.35 381.519 63.69 372.279 63.69 359.259C63.69 356.739 63.69 354.849 64.11 352.959H46.68C46.47 354.639 46.26 356.109 46.26 357.999C46.26 370.389 54.87 381.729 68.52 386.349V386.979L48.36 387.819V403.989C57.81 403.359 68.1 403.149 80.07 403.149H150ZM150 315.147H48.36V333.627H150V315.147ZM8.25 324.387C8.25 331.317 13.5 335.937 19.8 335.937C26.1 335.937 31.14 331.527 31.14 324.807C31.14 317.457 26.1 313.047 19.8 313.047C13.29 313.047 8.25 317.667 8.25 324.387ZM123.75 284.408C132.78 284.408 143.07 284.828 150 285.248V269.498L133.41 268.448V268.028C146.64 260.258 152.31 248.498 152.31 233.798C152.31 211.118 134.25 188.018 97.92 188.018C67.26 188.018 46.26 205.658 46.26 231.068C46.26 247.448 53.4 259.208 64.74 265.718V266.138H0.899992V284.408H123.75ZM91.2 266.138C88.26 266.138 85.74 265.718 83.43 265.088C69.57 261.308 60.75 249.548 60.75 237.158C60.75 217.208 78.18 206.708 98.55 206.708C121.86 206.708 137.61 218.048 137.61 237.578C137.61 251.018 128.79 261.938 115.98 265.298C113.88 265.928 111.57 266.138 109.26 266.138H91.2ZM102.54 83.1577C100.44 82.7377 97.71 82.5277 93.93 82.5277C75.24 82.5277 46.26 91.1377 46.26 124.528C46.26 154.138 70.2 172.198 100.86 172.198C131.52 172.198 152.31 153.508 152.31 122.218C152.31 106.048 148.74 94.7077 145.8 88.1977L132.57 91.5577C135.51 98.2777 137.82 106.468 137.82 119.698C137.82 138.388 127.53 154.138 102.54 154.558V83.1577ZM89.31 154.348C76.5 152.878 59.49 144.898 59.49 125.998C59.49 105.208 77.76 100.168 89.31 100.378L89.31 154.348ZM145.17 66.5727C149.37 59.4327 152.31 49.1427 152.31 38.0127C152.31 14.2827 139.71 0.212655 121.65 0.212655C106.53 0.212655 97.71 9.45265 91.2 26.8827C85.95 40.1127 82.17 45.9927 73.77 45.9927C66.21 45.9927 59.91 40.1127 59.91 29.1927C59.91 19.7427 63.48 12.3927 66 8.40266L52.56 3.99265C48.99 9.45265 46.26 18.4827 46.26 28.7727C46.26 50.4027 59.7 63.8427 76.08 63.8427C88.26 63.8427 98.13 55.2327 104.85 36.7527C109.89 23.3127 114.51 18.0627 123.33 18.0627C131.94 18.0627 138.45 24.3627 138.45 37.5927C138.45 46.8327 134.67 56.4927 131.31 62.1627L145.17 66.5727Z" fill="black" fill-opacity="0.2"/>
</svg>
